<?xml version="1.0" encoding="UTF-8"?>
<svg id="Layer_1" xmlns="http://www.w3.org/2000/svg" version="1.1" viewBox="0 0 16 16">
  <!-- Generator: Adobe Illustrator 30.1.0, SVG Export Plug-In . SVG Version: 2.1.1 Build 136)  -->
  <defs>
    <style>
      .st0 {
        fill: #f6f6f6;
      }
    </style>
  </defs>
  <path class="st0" d="M2,6C2,2.69,4.69,0,8,0c3.31,0,6,2.69,6,6,0,1.62-.66,3.18-1.83,4.31-.2.2-.36.4-.45.62l-.76,1.77c-.08.18-.26.3-.46.3h-5c-.2,0-.38-.12-.46-.3l-.76-1.77c-.11-.23-.26-.44-.45-.62-1.17-1.13-1.83-2.68-1.83-4.31M5,14.5c0-.28.22-.5.5-.5h5c.28,0,.5.22.5.5s-.22.5-.5.5l-.22.45c-.17.34-.52.55-.89.55h-2.76c-.38,0-.72-.21-.89-.55l-.22-.45c-.28,0-.5-.22-.5-.5"/>
</svg>